<?xml version="1.0" standalone="no"?>
<!DOCTYPE svg PUBLIC "-//W3C//DTD SVG 20010904//EN"
 "http://www.w3.org/TR/2001/REC-SVG-20010904/DTD/svg10.dtd">
<svg version="1.0" xmlns="http://www.w3.org/2000/svg"
 width="700.000000pt" height="700.000000pt" viewBox="0 0 700.000000 700.000000"
 preserveAspectRatio="xMidYMid meet">
<metadata>
Created by potrace 1.11, written by Peter Selinger 2001-2013
</metadata>
<g transform="translate(0.000000,700.000000) scale(0.100000,-0.100000)"
fill="#000000" stroke="none">
<path d="M3380 6655 c-199 -64 -323 -236 -314 -436 4 -79 17 -130 51 -194 23
-44 92 -120 137 -151 l28 -20 -1 -139 c0 -77 -4 -142 -8 -146 -5 -4 -33 -9
-64 -13 -131 -13 -430 -95 -522 -142 -16 -9 -30 -14 -31 -12 -2 2 -35 58 -74
125 -67 116 -70 122 -56 148 8 15 20 50 27 79 59 226 -61 450 -280 528 -246
86 -524 -78 -570 -337 -17 -96 4 -223 48 -287 11 -14 19 -30 19 -35 0 -16 104
-110 150 -136 48 -27 110 -46 175 -54 22 -2 40 -5 41 -6 1 -1 32 -56 71 -123
l69 -121 -80 -66 c-45 -37 -104 -88 -131 -115 -59 -55 -194 -207 -220 -245 -9
-15 -22 -27 -27 -27 -6 0 -63 30 -127 67 -64 37 -117 67 -117 67 -1 1 -4 21
-7 46 -14 113 -58 200 -136 273 -133 124 -324 155 -483 78 -84 -40 -133 -83
-180 -155 -152 -236 -52 -546 210 -647 104 -40 246 -34 339 15 34 17 25 20
163 -59 130 -74 124 -62 84 -161 -45 -112 -89 -273 -113 -412 -11 -63 -21
-115 -24 -118 -2 -2 -53 -5 -113 -5 -182 -1 -167 -4 -201 45 -17 24 -55 62
-85 84 -247 184 -606 62 -682 -233 -64 -245 84 -488 330 -540 176 -37 357 36
454 183 14 22 21 23 152 23 76 1 142 -2 148 -6 5 -3 10 -19 10 -35 0 -24 25
-162 45 -253 11 -50 58 -191 85 -256 16 -41 29 -75 28 -76 -2 -1 -58 -34 -126
-72 l-123 -71 -40 19 c-21 11 -63 24 -92 30 -379 73 -659 -342 -449 -667 96
-149 275 -224 448 -188 187 38 328 190 350 379 l6 51 118 67 c65 37 122 67
128 67 6 0 21 -15 33 -32 71 -102 287 -319 384 -385 19 -13 35 -29 35 -34 0
-6 -30 -64 -67 -128 l-68 -117 -66 -11 c-92 -14 -170 -53 -238 -118 -152 -144
-177 -375 -62 -552 138 -211 417 -260 623 -110 162 118 224 352 139 527 l-20
41 71 122 c39 67 72 123 73 124 1 2 30 -9 66 -23 157 -62 336 -111 479 -129
62 -8 80 -14 80 -28 1 -7 1 -70 1 -140 1 -124 0 -129 -22 -145 -24 -16 -105
-97 -124 -123 -22 -30 -56 -116 -64 -161 -41 -226 89 -434 315 -503 60 -19
187 -16 249 5 328 113 406 537 137 756 l-55 45 2 136 c1 75 3 139 6 141 2 3
53 13 112 23 59 10 119 21 133 25 108 26 277 82 338 111 18 9 34 14 36 12 2
-2 35 -59 74 -127 l70 -122 -18 -38 c-30 -63 -39 -111 -36 -196 11 -340 385
-533 672 -348 168 109 236 305 173 504 -12 37 -28 73 -35 79 -8 6 -14 17 -14
24 0 7 -29 40 -64 72 -80 75 -186 120 -287 123 -9 0 -21 10 -27 22 -6 13 -32
59 -57 103 -75 132 -73 123 -40 151 15 13 31 24 34 24 7 1 68 55 154 138 65
62 169 177 212 235 l28 37 31 -20 c17 -11 73 -44 123 -73 76 -42 93 -56 93
-76 0 -36 29 -140 51 -184 11 -21 46 -65 77 -97 88 -90 189 -133 314 -132 177
0 334 109 404 282 48 117 32 275 -39 386 -111 176 -340 249 -533 171 l-59 -23
-120 70 c-66 38 -121 70 -122 71 -2 1 13 41 33 91 63 161 126 417 127 522 0
13 28 14 202 12 81 -1 91 -3 105 -23 48 -74 147 -145 243 -176 139 -46 322 2
431 113 82 84 126 189 126 301 -1 197 -115 355 -304 421 -171 61 -394 -18
-496 -175 -15 -23 -20 -23 -154 -23 -148 1 -156 4 -156 51 0 83 -83 394 -139
525 -12 27 -20 50 -19 52 2 1 58 34 124 72 121 69 121 69 155 55 179 -77 369
-43 497 89 76 78 116 169 127 289 8 88 -41 226 -109 305 -101 118 -291 176
-442 134 -70 -20 -153 -71 -206 -128 -67 -72 -101 -144 -114 -247 -3 -27 -7
-50 -8 -51 0 0 -54 -31 -119 -68 -65 -37 -122 -66 -126 -64 -5 2 -32 32 -60
68 -94 118 -284 302 -367 357 -13 8 -24 20 -24 25 0 6 30 64 68 129 57 101 71
119 92 120 32 1 44 3 109 23 111 33 211 120 261 229 27 58 51 163 45 197 -1 8
-6 39 -10 69 -16 122 -120 256 -240 312 -346 162 -719 -162 -604 -525 11 -33
23 -64 29 -70 14 -18 -130 -268 -150 -259 -140 61 -390 132 -525 148 -27 4
-58 9 -67 11 -20 6 -20 7 -19 184 1 98 2 106 23 120 43 27 119 112 142 158 36
73 48 118 51 196 6 180 -107 353 -275 418 -71 27 -215 34 -280 13z"/>
</g>
</svg>
