<?xml version="1.0" encoding="iso-8859-1"?>
<!-- Generator: Adobe Illustrator 21.0.0, SVG Export Plug-In . SVG Version: 6.00 Build 0)  -->
<svg xmlns="http://www.w3.org/2000/svg" xmlns:xlink="http://www.w3.org/1999/xlink" version="1.1" id="Capa_1" x="0px" y="0px" viewBox="0 0 512 512" style="enable-background:new 0 0 512 512;" xml:space="preserve" width="512" height="512">
<g>
	<path style="fill:#C6C4CB;" d="M445.74,189.74V421H66.26V189.74C66.26,85.12,151.38,0,256,0c1.8,0,3.59,0.03,5.37,0.08   C363.52,2.93,445.74,86.92,445.74,189.74z"/>
	<path style="fill:#ACABB1;" d="M445.74,189.74V421H261.37V0.08C363.52,2.93,445.74,86.92,445.74,189.74z"/>
	<g>
		<path style="fill:#78777F;" d="M140.914,273.999V160.272h51.257c5.338,0,10.276,1.122,14.816,3.364    c4.538,2.243,8.462,5.181,11.773,8.81c3.309,3.631,5.899,7.743,7.769,12.333c1.867,4.593,2.803,9.238,2.803,13.936    c0,3.524-0.428,6.915-1.282,10.171c-0.856,3.259-2.082,6.327-3.684,9.21c-1.602,2.883-3.551,5.474-5.846,7.769    c-2.298,2.297-4.885,4.245-7.769,5.847l24.987,42.287h-29.633l-21.784-36.681h-17.139v36.681H140.914z M167.183,214.413h24.026    c3.096,0,5.767-1.467,8.009-4.405c2.242-2.936,3.364-6.7,3.364-11.292c0-4.698-1.282-8.435-3.844-11.212    c-2.563-2.776-5.341-4.165-8.33-4.165h-23.226V214.413z"/>
		<path style="fill:#78777F;" d="M248.23,160.27V274h26.27V160.27H248.23z"/>
		<path style="fill:#3C3A41;" d="M296.284,273.999V160.272h48.534c5.446,0,10.437,1.122,14.977,3.364    c4.538,2.243,8.435,5.181,11.693,8.81c3.256,3.631,5.819,7.743,7.688,12.333c1.867,4.593,2.803,9.238,2.803,13.936    c0,5.021-0.881,9.826-2.643,14.416c-1.762,4.592-4.22,8.705-7.368,12.333c-3.151,3.631-6.968,6.515-11.453,8.649    c-4.485,2.138-9.45,3.204-14.896,3.204h-23.065v36.681H296.284z M322.553,214.413h21.464c3.096,0,5.766-1.334,8.009-4.004    c2.243-2.668,3.364-6.567,3.364-11.693c0-2.668-0.348-4.966-1.041-6.888c-0.696-1.922-1.629-3.524-2.803-4.805    c-1.176-1.282-2.51-2.215-4.004-2.803c-1.497-0.586-2.991-0.881-4.485-0.881h-20.503V214.413z"/>
	</g>
	<rect x="140.5" y="304" style="fill:#ADACB2;" width="231" height="30"/>
	<rect x="24.26" y="406" style="fill:#FFA920;" width="463.48" height="106"/>
	<rect x="261.37" y="160.27" style="fill:#3C3A41;" width="13.13" height="113.73"/>
	<rect x="261.37" y="304" style="fill:#78777F;" width="110.13" height="30"/>
	<rect x="261.37" y="406" style="fill:#FF8800;" width="226.37" height="106"/>
</g>















</svg>
