<svg height="512" viewBox="0 0 512 512" width="512" xmlns="http://www.w3.org/2000/svg"><g id="Flat"><path d="m184 384-54.34188 11.64469a72.94147 72.94147 0 0 0 -57.65812 71.32236v29.03295h288v-29.033a72.94147 72.94147 0 0 0 -57.65812-71.32236l-54.34188-11.64464z" fill="#8ed0eb"/><path d="m248 192v192l-32 32-32-32v-32h-8a72.00575 72.00575 0 0 1 -72-72v-56l48-32z" fill="#f8d2b3"/><path d="m280 224a87.53767 87.53767 0 0 1 -12.98 46.01l-35.02-14.01a77.25149 77.25149 0 0 0 -18.51-50.16992c-1.31006-1.54-2.67993-3.02-4.11987-4.46l-1.37013-1.37008h-7.42993c-1.32007 0-2.63013.02-3.95.06006a136.53352 136.53352 0 0 0 -91.38007 38.72994l-1.24 1.21v-16a88 88 0 0 1 176 0z" fill="#2f4054"/><path d="m247.38574 312h-71.38574v-16h7.374l-6.49414-8.66016 50.32032-37.74023a8.00115 8.00115 0 0 1 4.79982-1.59961h16a7.99944 7.99944 0 0 1 7.999 8.10254l-.61425 48a7.99967 7.99967 0 0 1 -7.99901 7.89746zm-55.38574-16h47.4873l.40918-32h-5.22948z" fill="#8ed0eb"/><circle cx="128" cy="248" fill="#2f4054" r="8"/><path d="m208 304-24 48h-8a71.75643 71.75643 0 0 1 -44.58008-15.47c-.23-.17017-.45-.3501-.66992-.53a72.19672 72.19672 0 0 1 -10.87012-10.89014c-1.2998-1.61987-2.53979-3.2998-3.7-5.03979a71.62019 71.62019 0 0 1 -12.17988-40.07007l17.98-13.48a32.00794 32.00794 0 0 1 30.42993-4.37012l47.59007 17.85012z" fill="#349d66"/><circle cx="168" cy="248" fill="#2f4054" r="8"/><path d="m165.17993 288.83984-7.15993 14.32007-7.1499-3.57983a7.9458 7.9458 0 0 0 -8.38013.75l-26.31006 19.74a71.29608 71.29608 0 0 1 -7.47-14.41016l24.18023-18.12992a23.84455 23.84455 0 0 1 25.12986-2.26z" fill="#008b55"/><path d="m174.85986 324.12012-9.73974 16.23a24.01706 24.01706 0 0 1 -9.25 8.79 71.56475 71.56475 0 0 1 -24.4502-12.61012c-.23-.17017-.45-.3501-.66992-.53h13.79a8.05734 8.05734 0 0 0 6.85986-3.87988l9.74024-16.24024z" fill="#008b55"/><path d="m150.25 323.08008-18.09009 12.91992-.74.53c-.23-.17017-.45-.3501-.66992-.53a72.19672 72.19672 0 0 1 -10.87012-10.89014l21.07013-15.0498z" fill="#008b55"/><path d="m229.65991 189.65991-16.16991 16.17017c-1.31006-1.54-2.67993-3.02-4.11987-4.46l-1.37013-1.37008h-7.42993c-1.32007 0-2.63013.02-3.95.06006l21.72-21.72022z" fill="#262d43"/><path d="m232 256 3.21019-6.42039a17.32968 17.32968 0 0 1 15.50014-9.57961h2.57934a17.32968 17.32968 0 0 1 15.50014 9.57961 17.32972 17.32972 0 0 1 .94024 13.2302l-11.00612 33.01839a11.951 11.951 0 0 1 -11.33776 8.1718 11.951 11.951 0 0 1 -10.68934-6.60638l-4.69683-9.39362z" fill="#f8d2b3"/><path d="m256 140.10986a27.89385 27.89385 0 0 1 -27.89014 27.89014h-72.21972a27.89652 27.89652 0 0 1 -8.82007-54.35986l28.92993-9.64014h32l28.92993 9.64014a27.90012 27.90012 0 0 1 19.07007 26.46972z" fill="#8ed0eb"/><path d="m187.32007 168h-22.64014l-2.33984-2.34009a30.67241 30.67241 0 0 1 0-43.32007l11.31982 11.32007a14.62409 14.62409 0 0 0 0 20.67993z" fill="#37a2c7"/><path d="m221.65991 165.65991-2.33984 2.34009h-22.64014l13.66016-13.66016a14.62409 14.62409 0 0 0 0-20.67993l11.31982-11.32007a30.67241 30.67241 0 0 1 0 43.32007z" fill="#37a2c7"/><rect fill="#37a2c7" height="32" rx="16" width="64" x="160" y="72"/><path d="m208 72h-32a24 24 0 0 1 -24-24v-12a12 12 0 0 1 12-12 12 12 0 0 1 12 12 12 12 0 0 0 12 12h8a12 12 0 0 0 12-12 12 12 0 0 1 12-12 12 12 0 0 1 12 12v12a24 24 0 0 1 -24 24z" fill="#8ed0eb"/><path d="m400 304a40 40 0 1 1 -64-32v-208a24 24 0 0 1 48 0v208a39.93474 39.93474 0 0 1 16 32z" fill="#8ed0eb"/><circle cx="360" cy="304" fill="#f2c233" r="32"/><path d="m376 304a16 16 0 1 1 -24-13.85986v-170.14014a8 8 0 0 1 16 0v170.14014a15.99337 15.99337 0 0 1 8 13.85986z" fill="#e84042"/><path d="m400 136h32v16h-32z" fill="#2f4054"/><path d="m400 104h32v16h-32z" fill="#2f4054"/><path d="m400 72h32v16h-32z" fill="#2f4054"/><path d="m400 168h32v16h-32z" fill="#2f4054"/><path d="m400 200h32v16h-32z" fill="#2f4054"/><path d="m400 232h32v16h-32z" fill="#2f4054"/><g fill="#e84042"><path d="m352 368h16v16h-16z"/><path d="m388 358.354h15.999v16h-15.999z" transform="matrix(.866 -.5 .5 .866 -130.123 247.081)"/><path d="m414.354 332h15.999v16h-15.999z" transform="matrix(.5 -.866 .866 .5 -83.271 535.77)"/><path d="m424 296h16v16h-16z"/><path d="m280 296h16v16h-16z"/><path d="m289.646 332h16v15.999h-16z" transform="matrix(.866 -.5 .5 .866 -130.127 194.387)"/><path d="m316 358.354h16v15.999h-16z" transform="matrix(.5 -.866 .866 .5 -155.275 463.755)"/></g></g></svg>