<svg height="512" viewBox="0 0 512 512" width="512" xmlns="http://www.w3.org/2000/svg"><g id="Flat"><path d="m488 69.25v426.75h-80v-22.75a553.66229 553.66229 0 0 0 -16.25977-133.17993v-.01c-.63037-2.55-1.28027-5.09009-1.95019-7.64014l-1.73 3.46-9.77979 19.55005a147.64 147.64 0 0 1 -125.61035 81.46021l-13.6499 9.09981q-4.78491 3.17981-9.68994 6.13989a250.15119 250.15119 0 0 1 -129.07006 35.87011 55.88973 55.88973 0 0 1 -54.40015-43.09009l-4.00975-17.03979a250.24024 250.24024 0 0 1 10.5498-148.4502l43.6001-111.41992v-88l64-56 64 24 16 40-32 40-8-8-9.42993 13.2-30.57007 42.8 5.64014 45.12012a395.40393 395.40393 0 0 1 2.5 70.02978 164.67675 164.67675 0 0 1 123.83986-89.83984q5.95531-.88514 12.02-1.31006l3.91992-.18994a82.89153 82.89153 0 0 1 82-95.13013 83.2407 83.2407 0 0 1 28 4.88013 76.977 76.977 0 0 1 54.08008-37.56006z" fill="#f8d2b3"/><g fill="#f6c598"><path d="m456 368a88.09957 88.09957 0 0 1 -88-88v-16h16v16a72.08124 72.08124 0 0 0 72 72z"/><path d="m371.71582 232h-11.71582v-16h11.71582a60.28555 60.28555 0 0 0 60.28418-60.28418v-3.71582h16v3.71582a76.283 76.283 0 0 1 -76.28418 76.28418z"/><path d="m87.35352 411.15137-14.707-6.30274 6.91114-16.127a418.37978 418.37978 0 0 0 32.46582-196.1084l15.95312-1.22656a434.45212 434.45212 0 0 1 -33.71195 203.63774z"/><path d="m208.88379 351.95117-1.76758-15.90234 38.65723-4.29492a72.99649 72.99649 0 0 0 62.75293-54.84278l3.71289-14.85156 15.52148 3.88086-3.71289 14.85157a88.99349 88.99349 0 0 1 -76.50685 66.86425z"/><path d="m307.92 199.81a82.11417 82.11417 0 0 0 3.34 13.98l8.74 26.21-15.18 5.06-8.74-26.21a97.60164 97.60164 0 0 1 -4.1-17.54z"/><path d="m417.91992 109.56006a76.17219 76.17219 0 0 0 -7.29 17.23l-2.62992 9.20994-15.37988-4.3999 2.62988-9.21a92.4 92.4 0 0 1 6.66016-16.83008 81.90029 81.90029 0 0 1 16.00976 4.00004z"/><path d="m167.33008 388.6001-15.33008-4.6001a394.91555 394.91555 0 0 0 16.14014-92.8501 164.18186 164.18186 0 0 1 16.50976-26.6099 410.9181 410.9181 0 0 1 -17.31982 124.0601z"/><path d="m200 120-9.43 13.2-32.88-32.88 11.13-33.38 15.18 5.06-8 24z"/><path d="m252.66992 436.89014-13.64992 9.09986q-4.78491 3.17981-9.68994 6.13989a163.20129 163.20129 0 0 1 -22.74-3.98974l-2.47-.62012 3.87994-15.52003 2.47.62012a148.303 148.303 0 0 0 42.19992 4.27002z"/></g></g></svg>