<?xml version="1.0" encoding="iso-8859-1"?>
<!-- Generator: Adobe Illustrator 19.0.0, SVG Export Plug-In . SVG Version: 6.00 Build 0)  -->
<svg version="1.1" id="Capa_1" xmlns="http://www.w3.org/2000/svg" xmlns:xlink="http://www.w3.org/1999/xlink" x="0px" y="0px"
	 viewBox="0 0 512 512" style="enable-background:new 0 0 512 512;" xml:space="preserve">
<path style="fill:#FD003A;" d="M512,332v45c0,8.401-6.599,15-15,15H45c-8.401,0-15-6.599-15-15v-45l25.201-15h425.898L512,332z"/>
<path style="fill:#BF0029;" d="M481.099,317L512,332v45c0,8.401-6.599,15-15,15H286v-75H481.099z"/>
<polygon style="fill:#E5E5E5;" points="512,272 512,332 30,332 30,272 60,257 472.7,257 "/>
<polygon style="fill:#D9D9D9;" points="472.7,257 512,272 512,332 286,332 286,257 "/>
<path style="fill:#FD003A;" d="M512,45v45l-23.401,15h-437L30,90V45c0-8.401,6.599-15,15-15h452C505.401,30,512,36.599,512,45z"/>
<path style="fill:#BF0029;" d="M512,45v45l-23.401,15H286V30h211C505.401,30,512,36.599,512,45z"/>
<polygon style="fill:#E5E5E5;" points="512,90 512,150 492.201,165 53.401,165 30,150 30,90 "/>
<polygon style="fill:#D9D9D9;" points="512,90 512,150 492.201,165 286,165 286,90 "/>
<rect x="30" y="150" style="fill:#136EF1;" width="482" height="122"/>
<rect x="286" y="150" style="fill:#0F60CF;" width="226" height="122"/>
<path style="fill:#FEDBAB;" d="M60,30v467c0,8.401-6.599,15-15,15H15c-8.401,0-15-6.599-15-15V30C0,13.5,13.5,0,30,0S60,13.5,60,30z
	"/>
<path style="fill:#3C3A41;" d="M60,30v467c0,8.401-6.599,15-15,15H30V0C46.5,0,60,13.5,60,30z"/>
<g>
</g>
<g>
</g>
<g>
</g>
<g>
</g>
<g>
</g>
<g>
</g>
<g>
</g>
<g>
</g>
<g>
</g>
<g>
</g>
<g>
</g>
<g>
</g>
<g>
</g>
<g>
</g>
<g>
</g>
</svg>
