<svg height="512" viewBox="0 0 512 512" width="512" xmlns="http://www.w3.org/2000/svg"><g id="Flat"><circle cx="256" cy="256" fill="#a6c72a" r="152"/><path d="m240 64h32v56h-32z" fill="#68bc40"/><circle cx="256" cy="56" fill="#a6c72a" r="32"/><path d="m158 85.972h32v56h-32z" fill="#68bc40" transform="matrix(.866 -.5 .5 .866 -33.674 102.269)"/><circle cx="156" cy="82.795" fill="#a6c72a" r="32"/><path d="m97.972 146h32v56h-32z" fill="#68bc40" transform="matrix(.5 -.866 .866 .5 -93.703 185.703)"/><circle cx="82.795" cy="156" fill="#a6c72a" r="32"/><path d="m76 228h32v56h-32z" fill="#68bc40" transform="matrix(0 -1 1 0 -164 348)"/><circle cx="56" cy="256" fill="#a6c72a" r="32"/><path d="m97.972 310h32v56h-32z" fill="#68bc40" transform="matrix(-.5 -.866 .866 -.5 -121.759 605.703)"/><circle cx="82.795" cy="356" fill="#a6c72a" r="32"/><path d="m158 370.028h32v56h-32z" fill="#68bc40" transform="matrix(-.866 -.5 .5 -.866 125.674 829.731)"/><circle cx="156" cy="429.205" fill="#a6c72a" r="32"/><path d="m240 392h32v56h-32z" fill="#68bc40" transform="matrix(-1 0 0 -1 512 840)"/><circle cx="256" cy="456" fill="#a6c72a" r="32"/><path d="m322 370.028h32v56h-32z" fill="#68bc40" transform="matrix(-.866 .5 -.5 -.866 829.731 573.731)"/><circle cx="356" cy="429.205" fill="#a6c72a" r="32"/><path d="m382.028 310h32v56h-32z" fill="#68bc40" transform="matrix(-.5 .866 -.866 -.5 889.759 162.298)"/><circle cx="429.205" cy="356" fill="#a6c72a" r="32"/><path d="m404 228h32v56h-32z" fill="#68bc40" transform="matrix(0 1 -1 0 676 -164)"/><circle cx="456" cy="256" fill="#a6c72a" r="32"/><path d="m382.028 146h32v56h-32z" fill="#68bc40" transform="matrix(.5 .866 -.866 .5 349.703 -257.703)"/><circle cx="429.205" cy="156" fill="#a6c72a" r="32"/><path d="m322 85.972h32v56h-32z" fill="#68bc40" transform="matrix(.866 .5 -.5 .866 102.269 -153.731)"/><circle cx="356" cy="82.795" fill="#a6c72a" r="32"/><circle cx="256" cy="256" fill="#55a452" r="32"/><path d="m240 176h32v40h-32z" fill="#55a452"/><circle cx="256" cy="168" fill="#68bc40" r="32"/><path d="m188.038 206h32v40h-32z" fill="#55a452" transform="matrix(.5 -.866 .866 .5 -93.703 289.703)"/><circle cx="179.79" cy="212" fill="#68bc40" r="32"/><path d="m188.038 266h32v40h-32z" fill="#55a452" transform="matrix(-.5 -.866 .866 -.5 58.374 605.703)"/><circle cx="179.79" cy="300" fill="#68bc40" r="32"/><path d="m240 296h32v40h-32z" fill="#55a452" transform="matrix(-1 0 0 -1 512 632)"/><circle cx="256" cy="344" fill="#68bc40" r="32"/><path d="m291.962 266h32v40h-32z" fill="#55a452" transform="matrix(-.5 .866 -.866 -.5 709.626 162.298)"/><circle cx="332.21" cy="300" fill="#68bc40" r="32"/><path d="m291.962 206h32v40h-32z" fill="#55a452" transform="matrix(.5 .866 -.866 .5 349.703 -153.703)"/><circle cx="332.21" cy="212" fill="#68bc40" r="32"/></g></svg>